<?xml version="1.0" standalone="no"?>
<!DOCTYPE svg PUBLIC "-//W3C//DTD SVG 20010904//EN"
 "http://www.w3.org/TR/2001/REC-SVG-20010904/DTD/svg10.dtd">
<svg version="1.0" xmlns="http://www.w3.org/2000/svg"
 width="3360.000000pt" height="1892.000000pt" viewBox="0 0 3360.000000 1892.000000"
 preserveAspectRatio="xMidYMid meet">

<g transform="translate(0.000000,1892.000000) scale(0.100000,-0.100000)"
fill="#000000" stroke="none">
<path d="M0 18910 c0 -5 4 -10 10 -10 7 0 11 -3148 12 -9378 l3 -9378 27 -41
c14 -22 43 -48 65 -59 37 -19 197 -19 8351 -22 l8312 -2 0 9440 0 9440 8410 0
c5600 0 8410 3 8410 10 0 7 -5607 10 -16800 10 -11193 0 -16800 -3 -16800 -10z
m4964 -4628 c102 -36 194 -159 238 -321 31 -112 31 -374 0 -519 -83 -384 -285
-736 -527 -919 -111 -84 -213 -124 -317 -124 -169 -1 -296 122 -360 348 -31
111 -31 362 0 509 56 263 165 515 298 690 223 293 456 411 668 336z m-225
-2169 c-13 -15 -28 -31 -32 -34 -5 -3 -9 -10 -9 -15 0 -5 -4 -8 -10 -6 -5 1
-7 -2 -4 -7 4 -5 1 -16 -6 -23 -7 -8 -18 -23 -25 -33 -6 -11 -16 -19 -22 -17
-6 1 -10 -4 -8 -10 1 -7 -3 -12 -9 -11 -6 1 -11 -8 -10 -20 1 -13 -4 -21 -12
-19 -8 1 -11 -1 -8 -6 3 -5 -6 -20 -20 -35 -13 -15 -25 -30 -25 -34 -1 -5 -5
-7 -10 -5 -5 1 -8 -4 -6 -10 1 -7 -4 -12 -10 -10 -7 1 -12 -4 -10 -10 1 -7 -3
-12 -9 -11 -6 1 -11 -4 -11 -12 0 -8 5 -11 11 -8 6 3 -5 -11 -24 -31 -19 -20
-34 -40 -34 -44 1 -4 -2 -6 -7 -4 -5 1 -8 -4 -7 -10 2 -7 -4 -11 -12 -10 -8 2
-12 0 -7 -4 4 -4 -1 -16 -10 -27 -10 -10 -17 -22 -17 -26 1 -3 -2 -5 -8 -3 -5
1 -7 -2 -4 -7 4 -5 1 -16 -6 -23 -7 -8 -18 -23 -25 -33 -6 -11 -16 -19 -22
-17 -6 1 -10 -4 -9 -10 2 -7 -2 -12 -7 -11 -6 1 -12 -7 -12 -18 -2 -27 -22
-51 -36 -42 -5 3 -7 1 -3 -5 3 -6 0 -16 -7 -24 -7 -7 -15 -17 -16 -23 -2 -5
-7 -9 -12 -8 -5 2 -8 -3 -6 -10 1 -6 -4 -11 -10 -10 -7 2 -12 -3 -10 -10 1 -6
-3 -11 -9 -10 -6 1 -11 -4 -11 -12 0 -8 5 -11 11 -8 9 5 -21 -34 -44 -57 -3
-3 -10 -14 -17 -25 -6 -11 -17 -19 -25 -17 -7 2 -10 0 -5 -4 4 -4 -5 -21 -20
-38 -17 -18 -20 -24 -8 -16 18 13 -29 -46 -48 -61 -5 -3 -9 -10 -10 -15 -1 -5
-5 -8 -9 -7 -5 2 -7 -3 -5 -10 1 -6 -5 -11 -13 -9 -8 2 -12 0 -7 -4 4 -4 -1
-16 -10 -27 -13 -15 -14 -18 -3 -12 13 8 13 6 1 -8 -7 -9 -18 -14 -24 -10 -5
3 -7 1 -3 -5 3 -6 -1 -17 -9 -26 -9 -8 -17 -19 -18 -23 -1 -4 -5 -7 -9 -6 -5
2 -7 -3 -5 -10 1 -6 -4 -11 -10 -10 -7 2 -12 -3 -10 -10 1 -6 -3 -11 -9 -10
-6 1 -11 -8 -10 -20 1 -15 -4 -21 -14 -19 -8 2 -12 0 -8 -4 4 -4 2 -14 -4 -22
-7 -8 -17 -24 -23 -36 -7 -11 -17 -20 -23 -18 -7 1 -11 -4 -10 -10 2 -7 -4
-11 -12 -10 -8 2 -12 0 -7 -4 4 -4 -1 -16 -10 -27 -13 -15 -14 -18 -3 -12 14
8 -25 -42 -43 -56 -5 -3 -9 -10 -10 -15 -1 -5 -5 -8 -10 -6 -4 1 -6 -4 -5 -10
2 -7 -4 -12 -12 -10 -8 2 -12 0 -7 -4 4 -4 -1 -16 -10 -27 -13 -15 -14 -18 -3
-12 13 8 13 6 1 -8 -7 -9 -17 -14 -22 -11 -5 3 -9 2 -8 -3 3 -18 -1 -33 -10
-33 -5 0 1 37 14 83 97 342 266 683 484 972 95 126 281 312 389 389 72 51 260
156 279 156 4 0 -4 -12 -18 -27z m-1724 -513 c65 -54 122 -108 126 -118 8 -20
-34 -113 -52 -120 -5 -2 -7 -7 -4 -12 3 -4 -2 -13 -10 -20 -8 -7 -15 -18 -15
-26 0 -18 -38 -37 -61 -31 -17 5 -19 -1 -19 -50 0 -45 -8 -71 -42 -139 -23
-46 -46 -84 -50 -84 -5 0 -7 -4 -3 -9 3 -5 1 -12 -5 -16 -5 -3 -19 -25 -31
-48 -11 -23 -29 -58 -39 -77 l-19 -35 -1 172 0 172 -45 -44 c-32 -33 -52 -45
-74 -45 -47 0 -67 43 -49 108 12 43 256 522 266 522 4 0 61 -45 127 -100z
m4136 -205 c16 -9 34 -27 39 -41 19 -50 8 -324 -13 -316 -4 1 -15 -4 -23 -13
-9 -8 -20 -13 -25 -10 -5 4 -9 2 -9 -3 0 -5 -16 -17 -35 -26 -19 -9 -37 -21
-40 -26 -4 -6 -10 -8 -15 -5 -4 3 -13 -2 -20 -10 -7 -9 -29 -23 -49 -32 -20
-9 -44 -23 -53 -31 -10 -8 -18 -12 -18 -8 0 4 -10 -2 -22 -14 -19 -17 -37 -24
-59 -22 -3 1 -6 -20 -8 -46 -1 -26 -5 -50 -9 -54 -4 -4 -232 -137 -507 -296
l-500 -289 -3 39 c-3 33 -6 37 -18 27 -8 -6 -14 -8 -14 -4 0 5 -9 0 -20 -10
-11 -10 -20 -14 -20 -10 0 5 -10 0 -22 -11 -13 -10 -33 -25 -45 -32 l-23 -12
0 202 c1 156 4 207 14 221 18 24 1446 847 1469 847 10 0 31 -7 48 -15z m815
-558 c24 -21 27 -32 32 -100 3 -54 1 -77 -7 -77 -6 0 -10 -6 -8 -12 1 -7 -4
-12 -10 -10 -7 1 -12 -4 -10 -10 1 -7 -4 -12 -10 -10 -7 1 -12 -4 -10 -10 1
-7 -3 -12 -8 -11 -6 1 -12 -8 -12 -19 -1 -12 -21 -40 -44 -64 -22 -23 -42 -46
-43 -50 0 -5 -4 -8 -8 -6 -5 1 -7 -4 -5 -10 1 -7 -4 -12 -10 -10 -7 1 -12 -4
-10 -10 1 -7 -4 -12 -10 -10 -7 1 -12 -4 -10 -10 1 -7 -4 -12 -12 -10 -11 2
-12 0 -3 -11 10 -11 9 -17 -1 -26 -8 -6 -17 -7 -21 -3 -4 4 -6 0 -4 -8 2 -8
-3 -14 -10 -12 -8 1 -11 -2 -8 -7 4 -5 -1 -16 -9 -25 -9 -8 -17 -19 -18 -23
-1 -4 -5 -7 -10 -5 -4 1 -6 -4 -5 -10 2 -7 -3 -12 -10 -10 -6 1 -11 -4 -10
-10 2 -7 -4 -11 -12 -10 -8 2 -12 0 -7 -4 4 -4 0 -16 -10 -26 -9 -10 -12 -18
-8 -18 4 0 0 -9 -10 -20 -10 -11 -23 -17 -29 -13 -6 3 -8 3 -4 -2 4 -4 2 -15
-4 -23 -7 -8 -17 -24 -23 -36 -7 -11 -17 -20 -23 -18 -7 1 -11 -4 -10 -10 2
-7 -3 -12 -9 -10 -7 1 -12 -4 -10 -10 1 -7 -3 -12 -9 -11 -6 1 -11 -8 -10 -20
0 -12 -4 -21 -10 -20 -6 1 -11 -4 -11 -11 0 -7 61 23 136 65 l136 78 3 -61 c2
-33 1 -66 -2 -73 -2 -6 -111 -74 -243 -150 -131 -76 -247 -146 -259 -157 -11
-10 -24 -16 -27 -13 -4 3 -5 2 -2 -2 3 -3 -3 -15 -12 -26 -13 -15 -14 -18 -3
-12 13 8 13 6 1 -8 -7 -9 -18 -14 -24 -10 -6 3 -7 1 -3 -5 3 -6 -4 -21 -17
-34 -12 -13 -25 -27 -27 -33 -3 -5 -8 -9 -12 -8 -5 2 -7 -3 -5 -10 1 -6 -4
-11 -10 -10 -7 2 -12 -3 -10 -10 1 -6 -4 -11 -10 -10 -7 2 -12 -3 -10 -10 1
-6 -4 -11 -11 -9 -8 1 -11 -2 -7 -8 4 -6 14 -5 28 4 12 8 70 41 130 75 l107
60 0 -72 0 -72 -230 -134 c-127 -74 -234 -140 -238 -147 -4 -7 -25 -32 -47
-55 -22 -24 -40 -46 -40 -49 0 -3 -3 -4 -8 -2 -4 1 -6 -4 -5 -10 2 -7 -3 -12
-10 -10 -6 1 -11 -4 -10 -10 2 -7 -3 -12 -10 -10 -6 1 -11 -4 -10 -10 2 -7 -3
-12 -11 -10 -11 2 -12 0 -3 -11 10 -11 9 -17 -1 -26 -8 -6 -17 -7 -21 -3 -4 4
-6 0 -4 -8 2 -8 -3 -14 -10 -12 -8 1 -11 -2 -8 -7 4 -5 1 -16 -6 -23 -7 -8
-18 -23 -25 -33 -6 -11 -16 -19 -22 -17 -6 1 -10 -4 -9 -10 2 -7 -4 -11 -12
-10 -8 2 -12 0 -7 -4 4 -4 0 -16 -10 -26 -9 -10 -12 -18 -8 -18 4 0 0 -9 -10
-20 -10 -11 -22 -17 -27 -14 -4 3 -7 0 -6 -8 2 -7 -2 -12 -7 -11 -6 1 -12 -7
-12 -18 -2 -26 -22 -51 -34 -43 -5 3 -8 0 -7 -8 2 -7 -3 -12 -10 -10 -6 1 -11
-4 -10 -10 2 -7 -2 -12 -8 -11 -6 1 -11 -8 -10 -20 1 -13 -4 -21 -12 -19 -6 1
-11 -4 -10 -10 2 -7 -3 -12 -10 -10 -8 1 -11 -2 -8 -7 4 -5 1 -16 -6 -23 -7
-8 -18 -23 -25 -33 -6 -11 -16 -19 -22 -17 -6 1 -10 -4 -9 -10 2 -7 -3 -12
-10 -10 -6 1 -11 -4 -10 -10 2 -7 -3 -12 -10 -10 -6 1 -11 -4 -10 -10 2 -7 -3
-12 -11 -10 -11 2 -12 0 -3 -11 10 -11 9 -17 -1 -26 -8 -6 -17 -7 -21 -3 -4 4
-6 0 -4 -8 2 -8 -3 -14 -10 -12 -8 1 -11 -2 -8 -7 4 -5 0 -15 -7 -23 -7 -7
-15 -17 -18 -23 -2 -5 -7 -9 -12 -7 -4 1 -6 -1 -5 -5 2 -5 -1 -10 -7 -12 -5
-3 -18 -12 -27 -20 -9 -9 -207 -126 -438 -261 l-422 -245 -106 -157 c-59 -87
-114 -160 -122 -163 -39 -16 -40 -5 -40 867 l0 838 28 29 c15 16 466 281 1002
589 536 308 1171 672 1410 810 310 179 444 251 467 251 20 1 42 -8 59 -22z
m-4015 -405 l32 -29 -2 -154 c-1 -85 -6 -158 -10 -162 -4 -4 -17 -9 -29 -10
-11 0 -20 -4 -19 -7 1 -3 -1 -5 -4 -5 -4 0 -16 -8 -26 -18 -11 -9 -22 -15 -25
-12 -3 3 -13 -4 -23 -15 -10 -11 -24 -20 -30 -20 -7 0 -18 -7 -25 -15 -7 -8
-16 -13 -20 -10 -4 3 -13 -2 -20 -10 -7 -9 -29 -23 -49 -32 -20 -9 -44 -23
-53 -31 -10 -8 -18 -12 -18 -8 0 4 -9 -2 -21 -13 -11 -10 -23 -36 -26 -58 l-5
-38 -507 -292 -506 -292 -3 32 c-2 18 -8 37 -14 42 -8 7 -9 6 -4 -2 4 -8 1
-13 -7 -13 -8 0 -20 -7 -27 -15 -7 -9 -15 -13 -18 -10 -3 3 -14 -2 -24 -12
-10 -9 -18 -13 -18 -9 0 4 -8 0 -17 -10 -17 -17 -18 -8 -21 182 -2 133 1 206
9 220 6 13 200 131 467 285 252 145 498 288 547 317 125 76 407 238 425 245
33 12 61 6 91 -21z m622 -883 l27 -29 0 -813 c0 -664 -2 -817 -13 -832 -13
-17 -19 -16 -133 22 l-120 40 -414 -238 c-228 -131 -420 -239 -427 -239 -6 0
-13 -5 -15 -11 -2 -5 -11 -11 -20 -13 -10 -1 -20 -5 -24 -9 -4 -3 -12 -3 -18
1 -6 4 -24 7 -41 7 -16 1 -29 6 -28 11 1 6 -4 11 -12 11 -8 0 -12 -4 -9 -9 3
-4 -2 -8 -11 -8 -10 0 -13 5 -9 13 6 9 4 9 -7 1 -13 -9 -30 -11 -44 -4 -4 2
-20 4 -81 9 -9 1 -12 6 -8 14 6 9 4 9 -7 1 -12 -9 -49 -11 -64 -4 -3 1 -20 3
-37 4 -18 1 -32 7 -31 12 1 6 -4 11 -12 11 -8 0 -12 -4 -9 -9 3 -4 -2 -8 -11
-8 -9 0 -14 4 -11 8 3 5 -1 9 -9 9 -8 0 -12 -4 -9 -9 6 -10 -20 -11 -30 0 -4
4 -26 7 -49 7 -23 1 -41 6 -40 11 1 6 -4 11 -12 11 -8 0 -12 -3 -10 -7 5 -9
-36 -7 -51 2 -9 6 -78 -32 -431 -233 l-53 -30 0 73 1 73 118 67 c65 37 118 74
118 82 0 11 -23 15 -34 6 -8 -7 -30 -5 -40 3 -7 5 -13 6 -13 2 0 -5 -9 0 -21
11 -11 10 -20 14 -19 9 5 -21 -1 -27 -13 -17 -10 9 -74 -24 -266 -133 -140
-80 -255 -145 -257 -145 -2 0 -4 31 -4 70 l0 69 128 75 c70 41 136 81 147 89
l20 15 -20 -3 c-11 -1 -28 5 -38 13 -15 13 -18 14 -15 2 3 -13 -4 -15 -48 -11
-8 0 -13 5 -10 9 3 5 -1 9 -9 9 -8 0 -12 -4 -9 -9 3 -4 -2 -8 -11 -8 -10 0
-13 5 -9 13 6 9 5 9 -8 0 -8 -7 -18 -9 -22 -5 -4 4 -22 7 -39 7 -18 1 -31 6
-30 11 1 6 -4 11 -12 11 -8 0 -12 -3 -10 -7 10 -16 -66 -2 -85 15 -15 13 -20
15 -18 5 3 -13 -4 -15 -48 -11 -8 0 -13 5 -10 9 3 5 -1 9 -9 9 -8 0 -12 -4 -9
-9 3 -4 -2 -8 -11 -8 -10 0 -13 5 -9 13 6 9 5 9 -8 0 -8 -7 -18 -9 -22 -5 -4
4 -13 7 -19 7 -20 0 -22 207 -2 247 17 37 -114 -41 1780 1056 583 338 1069
618 1080 622 31 13 67 1 98 -31z m2261 -1331 c13 -18 16 -53 16 -170 l0 -147
63 36 c115 65 137 75 131 58 -4 -8 -10 -15 -15 -15 -5 0 -9 -6 -9 -12 0 -7
-17 -31 -38 -53 -22 -22 -41 -44 -43 -50 -2 -5 -8 -9 -12 -7 -5 1 -6 -2 -3 -7
3 -5 -2 -15 -10 -22 -9 -8 -27 -30 -39 -49 -13 -19 -35 -47 -49 -62 -14 -15
-26 -31 -26 -36 0 -4 -18 -26 -40 -47 -22 -21 -40 -44 -40 -50 -1 -11 -46 -65
-55 -65 -3 0 -5 11 -5 25 0 14 -3 25 -6 25 -3 0 -47 -24 -97 -54 -116 -68
-130 -73 -156 -47 -26 26 -27 73 -2 126 25 53 58 82 169 144 l92 53 0 159 c0
139 3 165 20 198 41 81 121 117 154 69z m-4211 -2295 c23 -22 22 -78 -3 -103
-37 -37 -112 -22 -131 27 -28 75 71 132 134 76z m7680 0 c23 -22 22 -78 -3
-103 -37 -37 -112 -22 -131 27 -28 75 71 132 134 76z m-5973 -293 l0 -270 -70
0 -70 0 0 270 0 270 70 0 70 0 0 -270z m1530 0 l0 -270 -65 0 c-58 0 -65 2
-65 20 0 18 -2 18 -36 -5 -71 -48 -179 -22 -231 56 -23 36 -29 55 -32 120 -4
98 20 156 82 197 54 36 141 38 186 4 l31 -23 0 86 0 85 65 0 65 0 0 -270z
m1548 232 c34 -15 57 -49 63 -92 4 -24 2 -25 -62 -28 -60 -3 -67 -1 -72 18 -6
23 -29 26 -46 6 -17 -20 5 -59 66 -117 79 -74 81 -75 94 -45 11 24 17 26 81
26 37 0 68 -4 68 -9 0 -5 -16 -37 -36 -72 l-35 -63 57 -55 c31 -31 58 -51 61
-46 2 6 43 118 91 250 l87 240 76 3 c66 2 78 0 84 -15 26 -67 175 -487 175
-494 0 -6 -30 -9 -72 -7 l-71 3 -12 35 -12 35 -91 3 -91 3 -12 -41 -12 -40
-152 0 c-137 0 -154 2 -169 19 -17 19 -18 19 -54 -2 -31 -18 -53 -22 -127 -22
-77 0 -95 3 -128 23 -47 30 -69 72 -69 132 0 55 21 102 61 131 28 21 28 21 14
59 -52 131 98 230 245 162z m-5403 -9 c46 -24 76 -54 99 -100 29 -57 24 -63
-53 -63 -64 0 -72 2 -99 30 -25 24 -39 30 -74 30 -75 0 -118 -50 -118 -135 0
-80 47 -135 115 -135 33 0 81 24 88 45 5 12 23 15 82 15 89 0 93 -9 45 -82
-57 -86 -181 -127 -291 -95 -110 33 -179 127 -179 245 0 36 5 82 12 103 16 55
73 118 132 146 43 20 62 23 126 20 50 -2 88 -11 115 -24z m4867 15 c57 -17
133 -88 155 -146 34 -90 10 -235 -48 -288 -10 -9 -19 -21 -19 -27 0 -5 23 -35
50 -67 28 -32 50 -60 50 -64 0 -3 -38 -6 -84 -6 l-83 0 -27 40 c-25 37 -29 40
-75 40 -161 0 -276 113 -275 271 2 183 173 302 356 247z m-4422 -169 l0 -69
-39 0 c-23 0 -48 -8 -62 -19 -22 -18 -24 -28 -27 -135 l-4 -117 -67 3 -66 3
-3 203 -2 202 70 0 c68 0 70 -1 70 -25 l0 -26 22 21 c13 11 34 23 48 26 14 3
30 7 35 9 21 5 25 -8 25 -76z m550 52 c55 -28 91 -87 97 -159 l6 -62 -142 0
-142 0 12 -22 c7 -13 17 -26 23 -30 19 -13 64 -9 80 7 10 11 36 15 86 15 69 0
71 -1 65 -22 -45 -148 -279 -174 -367 -40 -51 78 -42 205 19 273 61 67 175 85
263 40z m531 18 c40 -14 76 -44 95 -81 26 -51 20 -58 -49 -58 -52 0 -64 3 -75
21 -16 25 -65 23 -70 -3 -2 -13 15 -22 82 -42 66 -21 89 -33 105 -55 26 -37
27 -96 2 -137 -42 -69 -188 -85 -272 -29 -36 23 -69 74 -69 105 0 6 28 10 68
10 57 0 69 -3 80 -21 10 -15 21 -19 45 -17 58 6 39 31 -45 58 -100 32 -131 62
-131 124 0 69 34 109 108 127 46 11 89 10 126 -2z m420 -15 c26 -13 29 -13 29
1 0 12 14 15 70 15 l70 0 0 -205 0 -205 -70 0 c-56 0 -70 3 -70 15 0 12 -6 12
-37 -5 -95 -51 -209 -1 -248 109 -19 55 -19 104 0 167 33 111 153 162 256 108z
m700 0 c26 -13 29 -13 29 1 0 12 14 15 70 15 l70 0 0 -205 0 -205 -70 0 c-56
0 -70 3 -70 15 0 12 -6 12 -37 -5 -95 -51 -209 -1 -248 109 -19 55 -19 104 0
167 33 111 153 162 256 108z m513 -3 c33 -21 66 -73 66 -105 0 -13 -12 -16
-63 -16 -51 0 -64 3 -75 20 -13 21 -56 27 -68 9 -10 -17 9 -30 92 -58 90 -30
117 -58 117 -120 0 -52 -25 -88 -76 -112 -86 -39 -227 -8 -260 58 -37 71 -36
73 40 73 57 0 70 -3 81 -20 17 -27 85 -29 80 -2 -2 11 -28 25 -83 44 -95 32
-125 60 -125 119 0 70 35 111 115 132 39 11 125 -2 159 -22z m1066 0 c55 -28
91 -87 97 -159 l6 -62 -142 0 -142 0 12 -22 c7 -13 17 -26 23 -30 19 -13 64
-9 80 7 10 11 36 15 86 15 69 0 71 -1 65 -22 -45 -148 -279 -174 -367 -40 -51
78 -42 205 19 273 61 67 175 85 263 40z m2383 -1 l27 -21 0 21 c0 18 6 20 65
20 l65 0 0 -205 0 -205 -65 0 c-58 0 -65 2 -65 20 0 18 -2 18 -36 -5 -71 -48
-179 -22 -231 56 -23 36 -29 55 -32 120 -2 65 1 86 19 124 22 46 61 81 108 96
40 12 113 2 145 -21z m546 -8 c116 -71 126 -265 19 -345 -93 -69 -216 -62
-294 17 -112 112 -59 318 92 355 59 15 133 4 183 -27z m1990 0 c116 -71 126
-265 19 -345 -93 -69 -216 -62 -294 17 -112 112 -59 318 92 355 59 15 133 4
183 -27z m-8519 -177 l0 -206 -67 3 -68 3 -3 203 -2 202 70 0 70 0 0 -205z
m7242 76 c21 -69 39 -126 41 -127 1 -1 20 56 41 127 l39 129 75 0 c55 0 73 -3
69 -12 -2 -7 -35 -100 -72 -206 l-68 -193 -85 3 -85 3 -68 190 c-37 105 -68
196 -68 203 -1 10 17 12 71 10 l72 -3 38 -124z m438 -76 l0 -206 -67 3 -68 3
-3 203 -2 202 70 0 70 0 0 -205z m225 75 c21 -71 39 -130 40 -130 1 0 20 59
41 130 l38 130 73 0 c40 0 73 -2 73 -6 0 -4 -74 -215 -132 -376 -10 -27 -11
-28 -93 -28 -67 0 -84 3 -89 16 -21 54 -136 383 -136 388 0 3 33 6 73 6 l73 0
39 -130z m-905 -25 l0 -55 -165 0 -165 0 0 55 0 55 165 0 165 0 0 -55z m-6222
-973 l2 -184 -32 3 c-18 1 -50 -2 -71 -6 -76 -15 -127 39 -127 135 0 99 53
152 132 132 l38 -10 0 60 c0 59 0 59 28 56 l27 -3 3 -183z m232 179 c0 -22
-53 -71 -76 -71 -29 0 -30 6 -4 48 15 25 27 32 50 32 16 0 30 -4 30 -9z m650
-177 l0 -186 -32 3 c-18 1 -49 -1 -68 -5 -53 -11 -88 7 -110 56 -53 116 16
241 116 210 l34 -10 0 59 c0 59 0 59 30 59 l30 0 0 -186z m900 0 l0 -186 -32
3 c-18 1 -49 -1 -68 -5 -53 -11 -88 7 -110 56 -53 116 16 241 116 210 l34 -10
0 59 c0 59 0 59 30 59 l30 0 0 -186z m2068 -2 l2 -184 -32 3 c-18 1 -50 -2
-71 -6 -76 -15 -127 39 -127 135 0 99 53 152 132 132 l38 -10 0 60 c0 59 0 59
28 56 l27 -3 3 -183z m319 156 c18 -18 33 -36 33 -40 0 -14 -47 -9 -60 7 -12
14 -15 14 -30 0 -20 -18 -60 -20 -60 -3 0 17 51 68 69 68 8 0 30 -14 48 -32z
m4153 -153 l0 -185 -30 0 -30 0 0 185 0 185 30 0 30 0 0 -185z m-9750 142 c0
-17 -20 -37 -37 -37 -7 0 -17 9 -23 19 -14 28 13 55 41 41 10 -6 19 -16 19
-23z m2040 -6 c0 -21 -22 -33 -45 -25 -18 7 -20 51 -2 57 19 7 47 -12 47 -32z
m3350 4 c0 -25 -21 -38 -45 -29 -21 8 -19 52 3 56 28 7 42 -3 42 -27z m890 -4
c0 -21 -22 -33 -45 -25 -18 7 -20 51 -2 57 19 7 47 -12 47 -32z m-6380 4 c0
-24 -3 -25 -55 -25 l-55 0 0 -150 0 -150 -30 0 -30 0 0 150 0 150 -49 0 c-51
0 -67 10 -57 35 4 12 32 15 141 15 l135 0 0 -25z m7680 -35 c0 -25 4 -30 25
-30 18 0 25 -5 25 -20 0 -15 -7 -20 -25 -20 l-26 0 3 -87 c3 -83 4 -88 26 -91
17 -3 22 -9 20 -25 -4 -31 -59 -36 -87 -8 -18 18 -21 33 -21 115 0 90 -1 95
-22 98 -13 2 -23 10 -23 18 0 8 10 16 23 18 17 3 22 10 22 33 0 26 3 29 30 29
27 0 30 -3 30 -30z m-7395 -50 c0 -19 -6 -26 -25 -28 -45 -7 -50 -19 -50 -118
l0 -94 -30 0 -30 0 0 130 0 131 35 -3 c19 -1 38 1 42 5 4 5 19 7 33 5 19 -2
25 -9 25 -28z m208 -10 c21 -24 27 -40 27 -75 l0 -45 -85 0 -86 0 16 -30 c19
-37 56 -48 90 -26 28 18 35 19 54 7 34 -22 -34 -71 -98 -71 -33 0 -86 32 -102
61 -17 33 -15 119 5 157 35 67 128 79 179 22z m342 25 c45 -18 52 -39 56 -158
l4 -97 -45 -1 c-25 0 -64 -1 -88 -2 -55 -1 -86 27 -86 78 0 52 30 77 99 83 50
4 56 7 53 26 -2 12 -14 25 -32 31 -24 8 -31 6 -46 -13 -19 -22 -70 -31 -70
-11 0 35 53 78 98 79 12 0 38 -7 57 -15z m251 5 c34 -13 53 -38 54 -67 0 -33
-42 -31 -64 2 -18 27 -45 32 -64 13 -22 -22 -12 -37 31 -48 81 -22 117 -64 97
-115 -33 -86 -210 -62 -210 29 0 11 9 16 30 16 20 0 30 -5 30 -15 0 -15 29
-35 52 -35 8 0 23 6 33 14 27 19 7 41 -50 55 -55 14 -85 42 -85 79 0 60 77 98
146 72z m1562 -26 c19 -22 22 -36 22 -107 0 -45 3 -92 6 -105 6 -22 4 -23 -37
-21 -24 1 -60 -2 -79 -5 -53 -10 -100 22 -100 68 0 19 3 42 6 51 9 24 58 45
104 45 32 0 40 4 40 18 0 42 -47 55 -80 22 -21 -21 -70 -28 -70 -9 0 71 135
103 188 43z m226 22 c32 -13 63 -65 49 -80 -14 -14 -52 -5 -58 14 -9 27 -52
37 -73 16 -14 -14 -14 -18 -2 -29 8 -8 34 -19 58 -26 79 -22 103 -72 62 -124
-42 -53 -155 -44 -185 14 -9 16 -13 34 -10 39 8 13 55 13 55 1 0 -35 67 -54
90 -26 18 22 -1 40 -55 54 -74 19 -102 61 -74 112 11 22 61 48 92 49 10 0 33
-6 51 -14z m641 -1 c45 -18 52 -39 56 -158 l4 -97 -45 -1 c-25 0 -64 -1 -88
-2 -55 -1 -86 27 -86 78 0 52 30 77 99 83 50 4 56 7 53 26 -2 12 -14 25 -32
31 -24 8 -31 6 -46 -13 -19 -22 -70 -31 -70 -11 0 35 53 78 98 79 12 0 38 -7
57 -15z m371 5 c34 -13 53 -38 54 -67 0 -33 -42 -31 -64 2 -18 27 -45 32 -64
13 -22 -22 -12 -37 31 -48 81 -22 117 -64 97 -115 -33 -86 -210 -62 -210 29 0
11 9 16 30 16 20 0 30 -5 30 -15 0 -15 29 -35 52 -35 8 0 23 6 33 14 27 19 7
41 -50 55 -55 14 -85 42 -85 79 0 60 77 98 146 72z m552 -26 c19 -22 22 -36
22 -107 0 -45 3 -92 6 -105 6 -22 4 -23 -37 -21 -24 1 -60 -2 -79 -5 -53 -10
-100 22 -100 68 0 19 3 42 6 51 9 24 58 45 104 45 32 0 40 4 40 18 0 42 -47
55 -80 22 -21 -21 -70 -28 -70 -9 0 71 135 103 188 43z m380 0 c19 -22 22 -36
22 -107 0 -45 3 -92 6 -105 6 -22 4 -23 -37 -21 -24 1 -60 -2 -79 -5 -53 -10
-100 22 -100 68 0 19 3 42 6 51 9 24 58 45 104 45 32 0 40 4 40 18 0 42 -47
55 -80 22 -21 -21 -70 -28 -70 -9 0 71 135 103 188 43z m915 -4 c21 -24 27
-40 27 -75 l0 -45 -85 0 -86 0 16 -30 c19 -37 56 -48 90 -26 28 18 35 19 54 7
34 -22 -34 -71 -98 -71 -33 0 -86 32 -102 61 -17 33 -15 119 5 157 35 67 128
79 179 22z m236 25 c38 -19 41 -30 41 -151 l0 -104 -30 0 -30 0 0 100 c0 90
-2 100 -21 110 -16 9 -26 8 -45 -5 -23 -15 -24 -21 -24 -110 l0 -95 -30 0 -30
0 0 130 0 130 25 0 c14 0 25 -4 25 -9 0 -6 12 -3 28 5 34 18 56 18 91 -1z
m278 -18 c12 -12 25 -34 28 -49 6 -25 4 -28 -17 -28 -15 0 -32 11 -46 30 -27
36 -45 38 -77 5 -53 -52 -15 -167 49 -151 16 4 30 16 33 26 4 14 14 20 34 20
38 0 38 -20 0 -62 -26 -29 -35 -33 -81 -33 -45 0 -55 4 -80 32 -64 72 -42 204
40 236 28 11 95 -4 117 -26z m371 -3 c19 -22 22 -36 22 -107 0 -45 3 -92 6
-105 6 -22 4 -23 -37 -21 -24 1 -60 -2 -79 -5 -53 -10 -100 22 -100 68 0 19 3
42 6 51 9 24 58 45 104 45 32 0 40 4 40 18 0 42 -47 55 -80 22 -21 -21 -70
-28 -70 -9 0 71 135 103 188 43z m359 16 c32 -19 53 -66 53 -117 0 -22 -4 -23
-85 -23 -94 0 -107 -11 -59 -49 32 -25 47 -26 85 -4 26 16 31 16 44 2 14 -14
13 -18 -9 -38 -33 -31 -93 -38 -139 -16 -87 41 -90 193 -5 245 41 25 74 25
115 0z m258 8 c14 -6 25 -15 25 -20 0 -5 12 0 26 11 50 39 121 19 141 -39 7
-19 12 -74 12 -122 l1 -88 -30 0 -30 0 0 93 c0 50 -4 97 -8 103 -14 20 -45 25
-68 9 -22 -14 -24 -22 -24 -110 l0 -95 -30 0 -30 0 0 94 c0 73 -4 98 -16 110
-19 20 -34 20 -62 0 -20 -14 -22 -23 -22 -110 0 -94 0 -94 -25 -94 l-25 0 0
130 0 130 40 -2 c22 -1 43 2 47 5 10 11 49 8 78 -5z m679 2 c35 -13 66 -66 66
-112 l0 -38 -85 0 c-92 0 -100 -6 -60 -45 29 -29 47 -31 86 -8 26 16 31 16 44
2 14 -14 13 -18 -11 -40 -37 -34 -121 -35 -158 0 -33 31 -50 83 -42 133 9 55
21 76 59 98 36 22 63 25 101 10z m271 -2 c14 -6 25 -15 25 -20 0 -5 12 0 26
11 50 39 121 19 141 -39 7 -19 12 -74 12 -122 l1 -88 -30 0 -30 0 0 93 c0 50
-4 97 -8 103 -14 20 -45 25 -68 9 -22 -14 -24 -22 -24 -110 l0 -95 -30 0 -30
0 0 94 c0 73 -4 98 -16 110 -19 20 -34 20 -62 0 -20 -14 -22 -23 -22 -110 0
-94 0 -94 -25 -94 l-25 0 0 130 0 130 40 -2 c22 -1 43 2 47 5 10 11 49 8 78
-5z m424 -3 c36 -18 55 -65 55 -130 -2 -96 -56 -150 -130 -127 l-34 10 0 -54
c0 -53 0 -54 -30 -54 l-30 0 0 181 0 182 33 -6 c19 -3 40 -1 48 4 21 13 56 11
88 -6z m268 -5 c38 -22 50 -43 59 -98 13 -80 -32 -149 -103 -159 -79 -11 -135
46 -135 137 0 111 93 173 179 120z m371 -12 c3 -25 0 -28 -25 -28 -46 0 -53
-15 -53 -117 l0 -93 -30 0 -30 0 0 130 0 131 40 -3 c22 -1 43 1 47 5 17 17 48
2 51 -25z m189 12 c32 -19 53 -66 53 -117 0 -22 -4 -23 -85 -23 -94 0 -107
-11 -59 -49 32 -25 47 -26 85 -4 26 16 31 16 44 2 14 -14 13 -18 -9 -38 -33
-31 -93 -38 -139 -16 -87 41 -90 193 -5 245 41 25 74 25 115 0z m240 10 c42
-15 51 -40 56 -158 l4 -103 -36 2 c-20 2 -52 -1 -72 -5 -104 -22 -155 103 -62
152 12 7 42 12 67 12 50 0 54 4 30 38 -19 27 -48 28 -74 2 -17 -17 -70 -29
-70 -15 0 21 30 60 55 71 37 16 63 17 102 4z m-9587 -130 l0 -130 -25 0 -25 0
0 130 0 130 25 0 25 0 0 -130z m1542 35 c5 -111 18 -136 65 -119 28 9 28 10
31 112 l3 102 29 0 30 0 0 -131 0 -131 -32 4 c-18 3 -45 1 -61 -4 -34 -12 -71
-4 -97 22 -18 18 -20 34 -20 130 0 109 0 110 24 110 23 0 24 -3 28 -95z m273
8 l28 -88 28 85 c26 82 28 85 59 88 28 3 32 1 25 -15 -4 -10 -25 -69 -47 -131
-38 -106 -42 -113 -65 -110 -22 3 -30 17 -69 123 -24 66 -44 123 -44 128 0 4
13 7 28 7 26 0 30 -5 57 -87z m235 -43 l0 -130 -30 0 -30 0 0 130 0 130 30 0
30 0 0 -130z m1902 35 c5 -111 18 -136 65 -119 28 9 28 10 31 112 l3 102 29 0
30 0 0 -131 0 -131 -32 4 c-18 3 -45 1 -61 -4 -34 -12 -71 -4 -97 22 -18 18
-20 34 -20 130 0 109 0 110 24 110 23 0 24 -3 28 -95z m908 1 c0 -73 4 -98 16
-110 19 -20 34 -20 62 0 20 14 22 23 22 110 l0 94 30 0 30 0 0 -130 0 -130
-42 -1 c-24 -1 -62 -1 -86 -2 -31 -1 -48 5 -65 21 -19 20 -22 35 -25 132 l-4
110 31 0 31 0 0 -94z m540 -36 l0 -130 -30 0 -30 0 0 130 0 130 30 0 30 0 0
-130z m890 0 l0 -130 -30 0 -30 0 0 130 0 130 30 0 30 0 0 -130z m2705 15 c0
-18 -8 -20 -62 -23 -62 -3 -63 -2 -63 23 0 25 1 26 63 23 54 -3 62 -5 62 -23z"/>
<path d="M6949 11173 c-42 -36 -69 -96 -69 -159 0 -63 20 -85 73 -82 19 2 35
5 34 8 -1 3 10 21 24 40 46 62 62 138 38 183 -24 45 -54 48 -100 10z"/>
<path d="M7889 10543 c-13 -16 -12 -17 4 -4 9 7 17 15 17 17 0 8 -8 3 -21 -13z"/>
<path d="M7603 10185 c0 -8 4 -12 9 -9 5 3 6 10 3 15 -9 13 -12 11 -12 -6z"/>
<path d="M5429 9156 c-96 -66 -170 -238 -153 -361 8 -61 55 -115 101 -115 131
0 277 281 222 427 -28 76 -100 96 -170 49z"/>
<path d="M6809 9163 c-13 -16 -12 -17 4 -4 9 7 17 15 17 17 0 8 -8 3 -21 -13z"/>
<path d="M6523 8805 c0 -8 4 -12 9 -9 5 3 6 10 3 15 -9 13 -12 11 -12 -6z"/>
<path d="M2046 7608 c3 -5 10 -6 15 -3 13 9 11 12 -6 12 -8 0 -12 -4 -9 -9z"/>
<path d="M2866 7508 c3 -5 10 -6 15 -3 13 9 11 12 -6 12 -8 0 -12 -4 -9 -9z"/>
<path d="M5592 5627 c-29 -31 -30 -95 -2 -124 28 -31 55 -36 89 -18 32 16 51
61 43 102 -12 61 -88 84 -130 40z"/>
<path d="M7877 5627 l-26 -77 50 0 c27 0 49 4 49 8 0 4 -11 39 -23 77 l-24 69
-26 -77z"/>
<path d="M7235 5556 c-39 -59 12 -109 88 -86 l40 12 -39 40 c-57 58 -70 63
-89 34z"/>
<path d="M6743 5749 c-17 -5 -43 -23 -57 -40 -21 -25 -26 -41 -26 -85 0 -66
20 -108 60 -129 67 -35 141 -9 172 61 34 78 5 160 -68 190 -37 16 -37 16 -81
3z"/>
<path d="M2846 5645 c-28 -28 -18 -35 50 -35 l66 0 -14 23 c-19 28 -78 35
-102 12z"/>
<path d="M3862 5643 c-23 -9 -44 -64 -38 -98 13 -69 88 -92 133 -41 47 55 15
147 -50 145 -18 0 -38 -3 -45 -6z"/>
<path d="M4562 5643 c-23 -9 -44 -64 -38 -98 13 -69 88 -92 133 -41 47 55 15
147 -50 145 -18 0 -38 -3 -45 -6z"/>
<path d="M6076 5645 c-28 -28 -18 -35 50 -35 l66 0 -14 23 c-19 28 -78 35
-102 12z"/>
<path d="M8502 5627 c-29 -31 -30 -95 -2 -124 28 -31 55 -36 89 -18 32 16 51
61 43 102 -12 61 -88 84 -130 40z"/>
<path d="M9012 5649 c-13 -5 -29 -24 -37 -43 -39 -94 55 -178 118 -104 19 22
23 88 7 118 -13 24 -59 39 -88 29z"/>
<path d="M11002 5649 c-13 -5 -29 -24 -37 -43 -39 -94 55 -178 118 -104 19 22
23 88 7 118 -13 24 -59 39 -88 29z"/>
<path d="M3275 4668 c-30 -17 -35 -28 -35 -80 0 -35 6 -54 20 -68 24 -24 38
-25 68 -4 18 13 22 25 22 74 0 49 -4 61 -22 74 -26 19 -27 19 -53 4z"/>
<path d="M4145 4655 c-60 -59 -6 -184 61 -140 21 13 24 23 24 75 0 50 -4 61
-22 74 -30 21 -35 20 -63 -9z"/>
<path d="M5045 4655 c-60 -59 -6 -184 61 -140 21 13 24 23 24 75 0 50 -4 61
-22 74 -30 21 -35 20 -63 -9z"/>
<path d="M7125 4668 c-30 -17 -35 -28 -35 -80 0 -35 6 -54 20 -68 24 -24 38
-25 68 -4 18 13 22 25 22 74 0 49 -4 61 -22 74 -26 19 -27 19 -53 4z"/>
<path d="M2260 4660 c-31 -31 -24 -40 30 -40 54 0 65 14 32 43 -24 22 -38 21
-62 -3z"/>
<path d="M2632 4564 c-27 -19 -28 -40 -2 -54 30 -16 74 8 78 43 3 24 0 27 -25
27 -16 0 -39 -7 -51 -16z"/>
<path d="M4410 4560 c-11 -11 -17 -26 -14 -34 16 -42 94 -18 94 29 0 21 -5 25
-30 25 -17 0 -39 -9 -50 -20z"/>
<path d="M5312 4564 c-27 -19 -28 -40 -2 -54 30 -16 74 8 78 43 3 24 0 27 -25
27 -16 0 -39 -7 -51 -16z"/>
<path d="M6200 4560 c-11 -11 -17 -26 -14 -34 16 -42 94 -18 94 29 0 21 -5 25
-30 25 -17 0 -39 -9 -50 -20z"/>
<path d="M6580 4560 c-11 -11 -17 -26 -14 -34 16 -42 94 -18 94 29 0 21 -5 25
-30 25 -17 0 -39 -9 -50 -20z"/>
<path d="M7500 4660 c-31 -31 -24 -40 30 -40 54 0 65 14 32 43 -24 22 -38 21
-62 -3z"/>
<path d="M8380 4560 c-11 -11 -17 -26 -14 -34 16 -42 94 -18 94 29 0 21 -5 25
-30 25 -17 0 -39 -9 -50 -20z"/>
<path d="M8768 4663 c-34 -40 -32 -43 26 -43 60 0 68 8 36 40 -25 25 -42 25
-62 3z"/>
<path d="M9722 4664 c-39 -27 -28 -44 28 -44 37 0 50 4 50 14 0 13 -36 46 -50
46 -3 0 -16 -7 -28 -16z"/>
<path d="M10398 4669 c-15 -8 -18 -24 -18 -80 0 -64 2 -70 25 -81 50 -23 96
40 80 111 -10 45 -53 70 -87 50z"/>
<path d="M10668 4670 c-27 -16 -41 -74 -28 -115 19 -57 57 -69 95 -30 19 18
25 35 25 65 0 30 -6 47 -25 65 -26 27 -40 30 -67 15z"/>
<path d="M11228 4663 c-34 -40 -32 -43 26 -43 60 0 68 8 36 40 -25 25 -42 25
-62 3z"/>
<path d="M11483 4570 c-29 -12 -30 -46 -3 -60 32 -17 80 14 80 53 0 19 -38 23
-77 7z"/>
<path d="M25295 13266 c-67 -30 -95 -89 -95 -202 l0 -74 40 0 40 0 0 79 c0 69
3 81 25 105 l24 26 644 0 644 0 21 -23 c21 -22 22 -33 22 -176 l0 -152 40 37
40 37 0 120 c0 138 -12 174 -69 209 l-36 23 -655 2 c-532 2 -661 0 -685 -11z"/>
<path d="M23620 12710 l0 -210 45 0 45 0 0 210 0 210 -45 0 -45 0 0 -210z"/>
<path d="M26102 12873 c-25 -117 -34 -174 -30 -178 4 -4 64 12 75 19 3 2 43
188 43 198 0 4 -18 8 -39 8 -39 0 -39 -1 -49 -47z"/>
<path d="M24120 12830 c0 -36 -2 -40 -25 -40 -21 0 -25 -5 -25 -30 0 -25 4
-30 25 -30 25 0 25 -1 25 -80 0 -101 15 -135 69 -151 44 -13 111 -5 111 14 0
7 -3 22 -6 34 -5 18 -11 22 -30 17 -42 -11 -54 11 -54 92 l0 74 35 0 c32 0 35
2 35 30 0 28 -3 30 -35 30 -34 0 -35 1 -35 40 l0 40 -45 0 -45 0 0 -40z"/>
<path d="M23857 12796 c-78 -29 -112 -81 -105 -163 4 -44 11 -60 38 -88 52
-53 135 -70 205 -40 43 17 53 40 30 65 -16 18 -20 18 -46 5 -15 -8 -41 -15
-57 -15 -29 0 -82 33 -82 51 0 5 52 9 116 9 l117 0 -6 46 c-11 104 -112 166
-210 130z m109 -81 c14 -14 22 -30 19 -35 -3 -6 -37 -10 -76 -10 -62 0 -69 2
-69 19 0 11 10 27 22 35 33 24 75 20 104 -9z"/>
<path d="M24477 12800 c-16 -5 -35 -14 -43 -21 -11 -9 -14 -8 -14 5 0 12 -10
16 -40 16 l-40 0 0 -150 0 -150 39 0 39 0 4 94 c3 105 19 136 68 136 48 0 60
-26 60 -133 l0 -97 45 0 45 0 0 95 c0 82 3 98 20 115 23 23 58 26 86 6 16 -12
20 -29 22 -115 l4 -101 39 0 39 0 0 113 c0 93 -3 117 -20 144 -34 56 -137 66
-190 18 -17 -16 -20 -15 -47 3 -34 25 -79 33 -116 22z"/>
<path d="M25010 12801 c-72 -23 -111 -75 -112 -149 0 -60 23 -107 64 -132 61
-37 165 -37 210 0 l23 18 -23 25 c-22 23 -26 24 -50 11 -15 -8 -39 -14 -53
-14 -26 0 -79 34 -79 50 0 5 51 11 113 12 l112 3 -2 43 c-2 49 -31 95 -73 117
-36 19 -98 26 -130 16z m100 -81 c38 -38 27 -50 -49 -50 -39 0 -73 4 -76 10
-3 5 5 21 19 35 31 31 78 33 106 5z"/>
<path d="M25460 12778 c-52 -35 -73 -71 -78 -131 -6 -73 15 -113 75 -139 l46
-20 51 20 c28 11 70 26 92 33 l42 11 24 124 25 124 -43 0 c-37 0 -44 -3 -44
-20 0 -20 0 -20 -32 0 -46 28 -116 26 -158 -2z m145 -63 c29 -28 32 -63 10
-105 -41 -79 -156 -62 -155 23 1 87 90 138 145 82z"/>
<path d="M25825 12786 c-36 -16 -50 -32 -59 -70 -17 -69 64 -111 154 -81 53
18 54 21 4 34 -74 19 -74 19 -81 37 -10 26 17 35 89 31 62 -4 67 -3 77 20 10
21 8 25 -15 33 -36 14 -133 12 -169 -4z"/>
<path d="M26279 12779 l-24 -20 25 7 c14 4 41 13 60 20 l35 13 -36 0 c-24 1
-45 -6 -60 -20z"/>
<path d="M25203 12269 c8 -70 34 -110 87 -137 43 -21 55 -22 263 -22 119 1
215 5 212 9 -7 12 30 43 39 34 4 -5 6 -1 4 7 -1 8 3 14 10 12 6 -1 12 2 12 8
0 6 -91 10 -254 10 l-255 0 -20 26 c-13 17 -21 41 -21 65 0 39 0 39 -41 39
l-42 0 6 -51z"/>
<path d="M22113 10509 c-44 -13 -90 -62 -103 -110 -7 -26 -10 -166 -8 -402 3
-352 4 -363 25 -397 12 -19 37 -44 55 -55 33 -20 51 -20 3118 -20 3067 0 3085
0 3118 20 18 11 43 36 55 55 22 34 22 42 22 420 0 378 0 386 -22 420 -12 19
-37 44 -55 55 -33 20 -52 20 -3103 22 -1856 1 -3083 -2 -3102 -8z m1127 -259
c19 -6 46 -19 60 -30 l25 -19 -36 -36 -36 -37 -45 16 c-109 36 -206 -52 -176
-160 27 -98 152 -130 224 -59 37 37 30 45 -36 45 l-60 0 0 50 0 50 120 0 120
0 0 -52 c0 -57 -27 -128 -63 -166 -59 -63 -166 -88 -261 -60 -54 16 -128 90
-144 144 -16 55 -15 137 2 178 20 48 71 101 119 125 46 23 128 28 187 11z
m1970 -225 l0 -125 -25 0 -25 0 0 118 c0 65 3 122 7 125 3 4 15 7 25 7 16 0
18 -10 18 -125z m2070 0 l0 -125 -25 0 -25 0 0 125 0 125 25 0 25 0 0 -125z
m-3574 105 c32 -12 53 -37 54 -62 0 -27 -47 -24 -55 3 -5 16 -14 19 -38 17
-26 -2 -33 -9 -41 -36 -6 -20 -6 -48 0 -70 8 -32 13 -37 41 -40 24 -2 33 1 38
17 8 27 55 29 55 3 0 -51 -77 -84 -134 -57 -93 45 -65 232 36 235 9 0 29 -5
44 -10z m239 -15 c0 -23 -34 -33 -45 -14 -13 20 1 40 24 37 13 -2 21 -10 21
-23z m2686 -1 c26 -23 25 -64 -1 -64 -10 0 -24 9 -30 20 -13 23 -52 27 -70 5
-6 -8 -12 -35 -12 -60 0 -55 14 -75 53 -75 22 0 29 5 29 20 0 13 -7 20 -20 20
-13 0 -20 7 -20 20 0 17 7 20 50 20 l50 0 0 -43 c0 -58 -24 -80 -89 -81 -59
-1 -86 20 -102 76 -17 65 8 139 54 158 30 13 85 5 108 -16z m-2751 -59 c0 -17
-7 -25 -22 -27 -21 -3 -23 -9 -26 -65 -3 -59 -4 -63 -27 -63 -25 0 -25 1 -25
89 l0 90 50 -1 c46 0 50 -2 50 -23z m68 -67 l3 -88 -26 0 c-25 0 -25 0 -25 91
0 88 1 90 23 87 21 -3 22 -8 25 -90z m157 67 c16 -15 25 -36 25 -55 0 -30 0
-30 -55 -30 -44 0 -53 -3 -49 -15 7 -17 41 -20 64 -5 9 5 19 5 27 -2 19 -15
16 -22 -17 -42 -82 -48 -161 45 -115 134 24 47 81 55 120 15z m243 9 c30 -21
29 -54 -2 -54 -13 0 -26 7 -30 15 -3 8 -12 15 -21 15 -8 0 -15 -7 -15 -15 0
-8 7 -15 15 -15 9 0 29 -7 45 -15 23 -12 30 -23 30 -44 0 -37 -23 -56 -70 -56
-40 0 -80 26 -80 52 0 17 38 17 56 -2 15 -14 44 -11 44 6 0 5 -12 12 -27 15
-86 20 -80 114 7 114 14 0 36 -7 48 -16z m94 -51 c3 -61 5 -68 25 -71 21 -3
22 1 25 65 3 62 5 68 26 71 21 3 22 1 22 -86 l0 -89 -47 -6 c-86 -9 -103 9
-103 114 0 60 4 69 31 69 15 0 19 -10 21 -67z m244 59 c22 -15 34 -52 34 -110
l0 -59 -52 -6 c-66 -7 -98 11 -98 53 0 35 31 60 74 60 29 0 29 1 13 17 -13 13
-19 15 -29 5 -17 -17 -58 -15 -58 3 0 29 86 57 116 37z m263 -18 c11 -15 18
-30 15 -35 -8 -14 -36 -10 -56 8 -14 12 -21 14 -30 5 -11 -11 -6 -14 60 -37 7
-2 17 -16 24 -30 22 -50 -43 -87 -107 -61 -43 18 -50 56 -10 56 14 0 25 -4 25
-9 0 -14 25 -20 41 -11 10 7 1 14 -32 28 -62 27 -74 57 -39 92 30 30 83 27
109 -6z m159 9 c16 -14 21 -34 25 -90 l4 -73 -31 0 c-17 0 -41 -3 -53 -6 -24
-7 -73 34 -73 61 0 25 38 55 70 55 30 0 40 13 19 26 -6 3 -16 1 -22 -5 -16
-16 -57 -14 -57 3 0 21 39 46 71 46 15 0 36 -8 47 -17z m262 -3 c16 -16 20
-33 20 -89 l0 -68 -52 -6 c-65 -8 -98 10 -98 53 0 35 31 60 74 60 29 0 29 1
13 17 -13 13 -19 15 -29 5 -13 -13 -58 -17 -58 -4 1 45 94 68 130 32z m248 3
c12 -10 22 -27 24 -38 4 -28 -29 -31 -51 -4 -16 20 -21 21 -35 10 -21 -18 -21
-80 0 -88 9 -3 25 -1 35 5 10 7 27 12 38 12 31 0 13 -40 -25 -56 -63 -26 -113
11 -114 84 0 76 75 120 128 75z m178 -6 c21 -18 27 -32 27 -63 0 -77 -44 -115
-110 -93 -40 13 -53 34 -53 89 0 79 77 117 136 67z m189 13 c6 0 24 2 40 5 52
11 69 -12 73 -99 l4 -76 -26 0 c-25 0 -26 2 -26 58 0 60 -12 84 -36 75 -10 -4
-14 -24 -14 -69 0 -62 -1 -64 -25 -64 -24 0 -25 3 -25 58 0 60 -12 84 -36 75
-10 -4 -14 -24 -14 -69 0 -62 -1 -64 -25 -64 -25 0 -25 1 -25 89 l0 90 63 -4
c34 -2 67 -5 72 -5z m351 -13 c21 -18 27 -32 27 -63 0 -77 -44 -115 -110 -93
-40 13 -53 34 -53 89 0 79 77 117 136 67z m480 0 c21 -18 27 -32 27 -63 0 -77
-44 -115 -110 -93 -40 13 -53 34 -53 89 0 79 77 117 136 67z m181 -1 c23 -20
28 -32 28 -70 0 -58 -28 -90 -81 -90 -55 0 -88 42 -81 103 9 78 76 106 134 57z
m203 -79 c0 -90 -2 -103 -22 -124 -26 -28 -76 -31 -108 -5 -20 16 -21 19 -6
31 13 11 19 11 31 1 15 -13 55 -5 55 11 0 6 -8 8 -19 4 -51 -16 -100 50 -86
116 11 51 36 67 99 67 l56 -1 0 -100z m233 88 c19 -13 40 -79 29 -89 -3 -4
-27 -6 -54 -6 -35 0 -48 -4 -46 -12 6 -17 46 -22 62 -9 10 8 17 7 26 -3 26
-33 -32 -63 -87 -45 -40 13 -55 39 -55 93 1 31 7 46 27 64 29 25 71 28 98 7z"/>
<path d="M24030 10025 c-11 -13 -8 -15 20 -15 28 0 31 2 20 15 -7 8 -16 15
-20 15 -4 0 -13 -7 -20 -15z"/>
<path d="M24638 9973 c-10 -2 -18 -11 -18 -19 0 -22 44 -14 48 9 4 17 1 18
-30 10z"/>
<path d="M25052 9969 c-26 -10 -21 -29 9 -29 12 0 19 7 19 20 0 11 -1 20 -2
19 -2 0 -13 -4 -26 -10z"/>
<path d="M25313 9972 c-13 -2 -23 -10 -23 -18 0 -19 39 -18 47 1 7 20 4 22
-24 17z"/>
<path d="M25721 10026 c-7 -8 -11 -30 -9 -48 2 -27 7 -33 27 -33 30 0 44 33
28 65 -15 29 -31 35 -46 16z"/>
<path d="M26261 10026 c-7 -8 -11 -30 -9 -48 2 -27 7 -33 27 -33 30 0 44 33
28 65 -15 29 -31 35 -46 16z"/>
<path d="M26741 10026 c-7 -8 -11 -30 -9 -48 2 -27 7 -33 27 -33 30 0 44 33
28 65 -15 29 -31 35 -46 16z"/>
<path d="M26922 10028 c-24 -24 -11 -88 17 -88 39 0 55 54 25 84 -19 19 -26
20 -42 4z"/>
<path d="M27105 10024 c-30 -30 -13 -84 27 -84 15 0 18 8 18 44 0 49 -19 66
-45 40z"/>
<path d="M27373 10033 c-22 -8 -14 -23 13 -23 15 0 24 5 22 12 -5 14 -18 18
-35 11z"/>
<path d="M23752 7520 c-10 -16 -10 -20 1 -20 14 0 37 20 37 32 0 16 -25 8 -38
-12z"/>
<path d="M23980 7500 c0 -38 -1 -40 -25 -34 -62 15 -104 -30 -91 -99 9 -49 32
-66 89 -64 l47 2 0 118 c0 71 -4 117 -10 117 -5 0 -10 -18 -10 -40z m-16 -66
c24 -24 20 -80 -6 -98 -28 -20 -33 -20 -52 0 -18 18 -21 66 -6 95 13 23 43 25
64 3z"/>
<path d="M24680 7500 c0 -38 -1 -40 -25 -34 -62 15 -104 -30 -91 -99 9 -49 32
-66 89 -64 l47 2 0 118 c0 71 -4 117 -10 117 -5 0 -10 -18 -10 -40z m-16 -66
c24 -24 20 -80 -6 -98 -28 -20 -33 -20 -52 0 -18 18 -21 66 -6 95 13 23 43 25
64 3z"/>
<path d="M25340 7420 c0 -100 3 -120 15 -120 13 0 15 20 15 120 0 100 -2 120
-15 120 -12 0 -15 -20 -15 -120z"/>
<path d="M22360 7415 l0 -118 58 6 c77 8 102 36 102 112 0 77 -27 106 -103
113 l-57 4 0 -117z m88 84 c22 -8 34 -20 42 -45 22 -65 -7 -119 -65 -126 l-30
-3 -3 93 c-3 101 -2 102 56 81z"/>
<path d="M22570 7515 c0 -8 7 -15 15 -15 8 0 15 7 15 15 0 8 -7 15 -15 15 -8
0 -15 -7 -15 -15z"/>
<path d="M22830 7515 c0 -9 5 -15 11 -13 6 2 11 8 11 13 0 5 -5 11 -11 13 -6
2 -11 -4 -11 -13z"/>
<path d="M24050 7515 c0 -8 7 -15 15 -15 8 0 15 7 15 15 0 8 -7 15 -15 15 -8
0 -15 -7 -15 -15z"/>
<path d="M22910 7490 c0 -11 -7 -20 -15 -20 -8 0 -15 -4 -15 -10 0 -5 7 -10
15 -10 12 0 15 -13 15 -56 0 -64 13 -94 40 -94 23 0 27 15 5 24 -11 4 -15 21
-15 66 0 47 3 60 15 60 8 0 15 5 15 10 0 6 -7 10 -15 10 -8 0 -15 9 -15 20 0
11 -7 20 -15 20 -8 0 -15 -9 -15 -20z"/>
<path d="M22570 7385 c0 -69 3 -85 15 -85 12 0 15 16 15 85 0 69 -3 85 -15 85
-12 0 -15 -16 -15 -85z"/>
<path d="M22656 7448 c-23 -32 -20 -90 6 -123 18 -23 27 -26 55 -22 35 6 44
-8 21 -31 -15 -15 -54 -16 -63 -2 -4 6 -11 8 -16 4 -19 -11 13 -34 47 -34 60
0 74 25 74 134 l0 93 -54 2 c-46 1 -57 -3 -70 -21z m82 -10 c7 -7 12 -31 12
-55 0 -49 -25 -72 -60 -53 -15 8 -20 21 -20 53 0 45 13 67 40 67 9 0 21 -5 28
-12z"/>
<path d="M22830 7385 c0 -50 4 -85 10 -85 6 0 10 35 10 85 0 50 -4 85 -10 85
-6 0 -10 -35 -10 -85z"/>
<path d="M23020 7443 c-28 -35 -22 -99 10 -125 29 -24 73 -23 95 2 20 22 9 26
-29 8 -22 -9 -29 -8 -46 7 -35 32 -25 45 35 45 51 0 55 2 55 23 0 66 -79 92
-120 40z m78 -5 c24 -24 13 -38 -28 -38 -43 0 -45 2 -30 31 12 21 40 25 58 7z"/>
<path d="M23270 7448 c-29 -32 -27 -92 5 -123 31 -32 69 -32 102 1 21 21 25
32 20 66 -3 22 -13 48 -23 59 -24 26 -78 25 -104 -3z m90 -17 c23 -43 1 -111
-36 -111 -37 0 -61 89 -32 118 18 18 56 14 68 -7z"/>
<path d="M23530 7443 c-42 -54 -7 -143 56 -143 27 0 75 41 56 48 -7 2 -19 -4
-28 -12 -46 -47 -98 30 -64 95 14 25 56 25 70 -1 12 -23 30 -27 30 -7 0 23
-35 47 -68 47 -21 0 -37 -8 -52 -27z"/>
<path d="M23700 7448 c-29 -32 -27 -92 5 -123 31 -32 69 -32 102 1 21 21 25
32 20 66 -3 22 -13 48 -23 59 -24 26 -78 25 -104 -3z m90 -17 c23 -43 1 -111
-36 -111 -37 0 -61 89 -32 118 18 18 56 14 68 -7z"/>
<path d="M24050 7385 c0 -69 3 -85 15 -85 12 0 15 16 15 85 0 69 -3 85 -15 85
-12 0 -15 -16 -15 -85z"/>
<path d="M24136 7448 c-23 -32 -20 -90 6 -123 18 -23 27 -26 55 -22 35 6 44
-8 21 -31 -15 -15 -54 -16 -63 -2 -4 6 -11 8 -16 4 -19 -11 13 -34 47 -34 60
0 74 25 74 134 l0 93 -54 2 c-46 1 -57 -3 -70 -21z m82 -10 c7 -7 12 -31 12
-55 0 -49 -25 -72 -60 -53 -15 8 -20 21 -20 53 0 45 13 67 40 67 9 0 21 -5 28
-12z"/>
<path d="M24320 7448 c-29 -32 -27 -92 5 -123 31 -32 69 -32 102 1 21 21 25
32 20 66 -3 22 -13 48 -23 59 -24 26 -78 25 -104 -3z m90 -17 c23 -43 1 -111
-36 -111 -37 0 -61 89 -32 118 18 18 56 14 68 -7z"/>
<path d="M24764 7456 c-27 -20 -10 -32 22 -16 28 16 57 5 62 -24 3 -12 -4 -16
-32 -16 -23 0 -43 -7 -56 -20 -24 -24 -24 -29 -4 -58 16 -24 44 -28 75 -12 13
7 19 7 19 0 0 -5 6 -10 14 -10 10 0 12 15 8 73 -2 39 -9 78 -14 85 -14 16 -70
15 -94 -2z m83 -83 c10 -25 -33 -56 -59 -42 -26 14 -19 41 12 50 38 11 40 10
47 -8z"/>
<path d="M25016 7457 c-31 -23 -17 -60 29 -75 51 -17 61 -27 45 -47 -16 -19
-44 -19 -60 0 -16 19 -30 19 -30 1 0 -21 57 -41 88 -30 20 7 28 17 30 40 3 32
-1 35 -71 58 -24 8 -18 40 9 44 11 2 27 -4 34 -13 16 -19 30 -19 30 0 0 31
-70 46 -104 22z"/>
<path d="M25180 7455 c-18 -22 -8 -26 29 -12 29 11 34 10 46 -7 19 -25 10 -36
-29 -36 -35 0 -66 -25 -66 -53 0 -30 28 -46 82 -44 l53 1 -3 70 c-2 51 -8 75
-20 84 -22 17 -77 15 -92 -3z m88 -88 c4 -20 -40 -49 -62 -41 -25 10 -16 47
14 55 33 9 44 6 48 -14z"/>
<path d="M25434 7456 c-27 -20 -10 -32 22 -16 28 16 57 5 62 -24 3 -12 -4 -16
-32 -16 -23 0 -43 -7 -56 -20 -24 -24 -24 -29 -4 -58 16 -24 44 -28 75 -12 13
7 19 7 19 0 0 -5 6 -10 14 -10 10 0 12 15 8 73 -2 39 -9 78 -14 85 -14 16 -70
15 -94 -2z m83 -83 c10 -25 -33 -56 -59 -42 -26 14 -19 41 12 50 38 11 40 10
47 -8z"/>
<path d="M22113 6589 c-44 -13 -90 -62 -103 -110 -7 -26 -10 -166 -8 -402 3
-352 4 -363 25 -397 12 -19 37 -44 55 -55 33 -20 51 -20 3118 -20 3067 0 3085
0 3118 20 18 11 43 36 55 55 22 34 22 42 22 420 0 378 0 386 -22 420 -12 19
-37 44 -55 55 -33 20 -52 20 -3103 22 -1856 1 -3083 -2 -3102 -8z m3875 -486
l3 -123 -26 0 -25 0 0 126 c0 124 0 125 23 122 21 -3 22 -7 25 -125z m-1600
90 c3 -22 0 -23 -52 -23 -53 0 -56 -1 -56 -25 0 -23 4 -25 45 -25 38 0 45 -3
45 -20 0 -17 -7 -20 -45 -20 -43 0 -45 -1 -45 -30 0 -30 1 -30 55 -30 48 0 55
-2 55 -20 0 -18 -7 -20 -80 -20 l-80 0 0 120 0 121 78 -3 c71 -3 77 -5 80 -25z
m259 -12 c3 -11 11 -22 19 -25 19 -7 18 -36 -1 -36 -11 0 -15 -12 -15 -49 0
-34 4 -51 15 -55 21 -8 19 -34 -5 -41 -10 -3 -28 -1 -40 5 -17 9 -20 21 -20
75 0 51 -3 65 -15 65 -8 0 -15 9 -15 20 0 11 7 20 15 20 8 0 15 9 15 20 0 27
40 27 47 1z m-104 -38 c13 -13 17 -32 17 -90 0 -71 -1 -73 -25 -73 -24 0 -25
2 -25 64 0 67 -7 80 -34 70 -12 -5 -16 -21 -16 -70 0 -62 -1 -64 -25 -64 -25
0 -25 1 -25 89 l0 88 58 1 c38 0 63 -5 75 -15z m247 -8 c0 -17 -6 -25 -22 -27
-21 -3 -23 -9 -26 -65 -3 -59 -4 -63 -27 -63 -25 0 -25 2 -25 83 0 46 3 86 6
90 3 3 26 5 50 5 40 0 44 -2 44 -23z m126 17 c22 -15 34 -52 34 -110 l0 -59
-52 -6 c-66 -7 -98 11 -98 53 0 35 31 60 74 60 29 0 29 1 13 17 -13 13 -19 15
-29 5 -19 -19 -60 -15 -56 5 6 32 84 56 114 35z m154 -17 c0 -17 -6 -25 -22
-27 -21 -3 -23 -9 -26 -65 -3 -59 -4 -63 -27 -63 -25 0 -25 2 -25 83 0 46 3
86 6 90 3 3 26 5 50 5 40 0 44 -2 44 -23z m237 -5 c7 -14 13 -53 13 -87 0 -61
-1 -63 -25 -63 -24 0 -25 3 -25 58 0 60 -12 84 -36 75 -10 -4 -14 -24 -14 -69
0 -62 -1 -64 -25 -64 -25 0 -25 1 -25 89 l0 89 62 -1 c56 -2 64 -5 75 -27z
m159 16 c15 -11 20 -30 24 -89 l5 -75 -55 -5 c-68 -7 -100 9 -100 53 0 34 31
60 73 60 25 0 28 2 17 15 -9 11 -17 12 -30 5 -22 -12 -60 -13 -60 -2 1 41 86
67 126 38z m255 -7 c11 -11 18 -26 16 -32 -6 -19 -39 -21 -49 -3 -11 20 -38
21 -38 2 0 -7 13 -16 29 -19 85 -17 79 -112 -7 -112 -42 0 -82 26 -82 52 0 17
38 17 56 -2 14 -14 44 -11 44 4 0 5 -18 13 -40 20 -46 14 -67 49 -50 81 19 36
89 41 121 9z m155 13 c22 -15 34 -52 34 -110 l0 -59 -52 -6 c-66 -7 -98 11
-98 53 0 35 31 60 74 60 29 0 29 1 13 17 -13 13 -19 15 -29 5 -19 -19 -60 -15
-56 5 6 32 84 56 114 35z m262 -9 c16 -14 21 -33 24 -90 l4 -73 -41 -2 c-68
-3 -89 1 -102 19 -30 40 3 93 57 93 30 0 40 13 20 25 -6 4 -17 2 -25 -5 -8 -6
-26 -10 -42 -8 l-28 3 27 28 c32 32 76 36 106 10z"/>
<path d="M24850 6034 c0 -10 7 -14 22 -12 32 5 35 28 4 28 -17 0 -26 -5 -26
-16z"/>
<path d="M25390 6034 c0 -10 7 -14 22 -12 32 5 35 28 4 28 -17 0 -26 -5 -26
-16z"/>
<path d="M25810 6034 c0 -10 7 -14 22 -12 32 5 35 28 4 28 -17 0 -26 -5 -26
-16z"/>
<path d="M26065 6040 c-8 -12 20 -24 35 -15 5 3 10 10 10 16 0 12 -37 12 -45
-1z"/>
<path d="M1 103 l-1 -103 103 1 c68 1 90 4 67 8 -88 18 -143 73 -161 161 -4
24 -7 1 -8 -67z"/>
<path d="M33590 160 c0 -50 -74 -134 -128 -146 -51 -11 -47 -12 46 -13 l92 -1
0 90 c0 50 -2 90 -5 90 -3 0 -5 -9 -5 -20z"/>
</g>
</svg>
